<svg aria-hidden="true" style="width:0;height:0;position:absolute;overflow:hidden" xmlns="http://www.w3.org/2000/svg"><defs><symbol id="icon-search" viewBox="0 0 32 32"><path fill="#e10015" style="fill:var(--color1,#e10015)" d="m28.205 23.734-4.381-4.381c1.214-2.586.792-5.753-1.372-7.917-2.692-2.692-7.125-2.692-9.817 0s-2.692 7.125 0 9.817c2.164 2.164 5.331 2.586 7.917 1.372l4.381 4.381c.897.897 2.375.897 3.272 0s.897-2.375 0-3.272z"/><path fill="none" stroke="#18193f" style="stroke:var(--color2,#18193f)" stroke-linejoin="round" stroke-linecap="round" stroke-miterlimit="10" stroke-width="2" d="m21.819 17.347 4.275 4.275a2.326 2.326 0 0 1 0 3.272v0a2.326 2.326 0 0 1-3.272 0l-2.269-2.269M8.941 16.714c-.95-2.481-.422-5.383 1.583-7.389s5.014-2.533 7.494-1.531"/><path fill="none" stroke="#18193f" style="stroke:var(--color2,#18193f)" stroke-linejoin="round" stroke-linecap="round" stroke-miterlimit="10" stroke-width="2" d="M21.238 10.434c1.794 2.692 1.478 6.386-.897 8.761-2.586 2.586-6.65 2.692-9.342.422"/></symbol><symbol id="icon-search" viewBox="0 0 32 32"><path d="m31.008 27.231-7.58-6.447c-.784-.705-1.622-1.029-2.299-.998a11.954 11.954 0 0 0 2.87-7.787c0-6.627-5.373-12-12-12s-12 5.373-12 12 5.373 12 12 12c2.972 0 5.691-1.081 7.787-2.87-.031.677.293 1.515.998 2.299l6.447 7.58c1.104 1.226 2.907 1.33 4.007.23s.997-2.903-.23-4.007zM12 20a8 8 0 1 1 0-16 8 8 0 0 1 0 16z"/></symbol></defs></svg>